<?xml version="1.0" encoding="UTF-8" standalone="no"?>

<!-- Created with Inkscape (http://www.inkscape.org/) -->

<svg id="svg3347" xmlns:rdf="http://www.w3.org/1999/02/22-rdf-syntax-ns#" xmlns="http://www.w3.org/2000/svg" viewBox="0 0 824.23 302.15" version="1.1" xmlns:cc="http://creativecommons.org/ns#" xmlns:dc="http://purl.org/dc/elements/1.1/">

 <defs id="defs3349">

  <clipPath id="clipPath3253" clipPathUnits="userSpaceOnUse">

   <path id="path3255" d="m0,563.52,1391,0v-563.52h-1391v563.52z"/>

  </clipPath>

 </defs>

 <metadata id="metadata3352">

  <rdf:RDF>

   <cc:Work rdf:about="">

    <dc:format>image/svg+xml</dc:format>

    <dc:type rdf:resource="http://purl.org/dc/dcmitype/StillImage"/>

    <dc:title/>

   </cc:Work>

  </rdf:RDF>

 </metadata>

 <g id="layer1" transform="translate(-273.59953,-104.14636)">

  <path id="path3000-1" d="M696.33,406.29h343.9c31.7,0,57.6-25.9,57.6-57.6v-60.9h-401.47c-31.7,0-57.6,25.9-57.6,57.6v3.3c0.1,31.6,26,57.6,57.6,57.6z" class="st1" fill="#004df3"/>

  <g id="g3245" transform="matrix(1.25,0,0,-1.25,-4027.9376,-2546.8684)">

   <g id="g3249" transform="matrix(0.2509118,0,0,0.2509118,3739.1309,-2387.3813)">

    <g id="g3251" clip-path="url(#clipPath3253)">

     <g id="g3257" transform="translate(324.9231,401.0612)">

      <path id="path3259" fill-rule="nonzero" fill="#FFF" d="m0,0c0,17.945-14.548,32.492-32.492,32.492h-0.001c-17.945,0-32.492-14.547-32.492-32.492v-32.492h32.493c17.944,0,32.492,14.547,32.492,32.492"/>

     </g>

     <g id="g3261" transform="translate(194.9539,259.9348)">

      <path id="path3263" fill-rule="nonzero" fill="#FFF" d="m0,0c0-17.945,14.548-32.492,32.493-32.492s32.492,14.547,32.492,32.492v32.493h-32.492c-17.945,0-32.493-14.548-32.493-32.493m129.97,112.02,0-14.543,0-4.233,0-93.197c0-53.862-43.642-97.525-97.478-97.525-53.835,0-97.477,43.663-97.477,97.525,0,53.861,43.642,97.43,97.477,97.43h56.904l0.065,0.003h8.018c12.891,0,24.495,5.621,32.491,14.54"/>

     </g>

     <g id="g3265" transform="translate(666.8752,292.2898)">

      <path id="path3267" fill-rule="nonzero" fill="#FFF" d="m0,0c-7.774,8.292-17.621,12.438-29.8,12.438s-22.027-4.146-29.8-12.438c-7.515-8.293-11.402-18.399-11.402-30.319,0-12.179,3.887-22.286,11.402-30.577,7.773-8.293,17.621-12.438,29.8-12.438s22.026,4.145,29.8,12.438c7.774,8.291,11.662,18.398,11.662,30.577,0,11.92-3.888,22.026-11.662,30.319m10.884,39.905,32.132,0,0-140.71-32.132,0,0,17.362c-12.179-13.734-27.468-20.73-45.867-20.73-20.211,0-36.797,6.996-50.012,21.249-13.215,14.252-19.694,32.131-19.694,53.122,0,20.989,6.479,38.61,19.694,52.344s30.059,20.73,50.012,20.73c17.88,0,33.17-6.996,45.867-21.248v17.879z"/>

     </g>

     <g id="g3269" transform="translate(847.738,199.7785)">

      <path id="path3271" fill-rule="nonzero" fill="#FFF" d="m0,0c-11.143-7.774-24.877-11.66-40.684-11.66-31.873,0-48.199,18.917-48.199,54.935v60.637h-23.321v28.505h23.841v49.753h33.427v-49.753h47.162v-28.505h-47.162v-59.341c0-16.843,6.738-25.395,20.472-25.395,7.774,0,15.806,2.332,23.839,7.256l10.621-26.44z"/>

     </g>

     <g id="g3273" transform="translate(873.1208,250.3098)">

      <path id="path3275" fill-rule="nonzero" fill="#FFF" d="m0,0,0,81.886,33.945,0,0-81.886c0-18.917,11.144-31.355,29.541-31.355,18.659,0,29.801,12.438,29.801,31.355v81.886h33.946v-81.886c0-39.13-24.098-62.192-63.747-62.192-39.125,0-63.483,23.062-63.483,62.192"/>

     </g>

     <g id="g3277" transform="translate(1244.9929,320.0163)">

      <path id="path3279" fill-rule="nonzero" fill="#FFF" d="m0,0c10.624-10.624,16.065-25.135,16.065-43.793v-84.736h-33.946v78.517c0,22.804-11.66,34.983-29.282,34.983-18.916,0-32.391-14.253-32.391-36.019v-77.481h-33.687v78.257c0,22.026-11.921,35.243-29.801,35.243-18.916,0-32.65-14.253-32.65-36.279v-77.221h-33.688v140.71h33.169v-20.212c8.033,14.771,24.359,24.099,42.758,24.099,18.397-0.259,34.463-8.81,41.978-25.135,10.107,15.807,29.023,25.135,50.532,25.135,16.84-0.001,30.314-5.443,40.94-16.067"/>

     </g>

     <g id="g3281" transform="translate(494.3372,231.3928)">

      <path id="path3283" fill-rule="nonzero" fill="#FFF" d="m0,0c-7.515-8.291-17.621-12.438-29.801-12.438-12.178,0-22.026,4.147-29.541,12.438-7.514,8.292-11.401,18.398-11.401,30.578,0,11.92,3.887,22.026,11.401,30.318,7.515,8.293,17.363,12.439,29.541,12.439,12.18,0,22.027-4.146,29.542-12.439,7.775-8.292,11.661-18.398,11.661-30.318,0-12.18-3.886-22.286-11.402-30.578m9.588,150.91,0-67.983c-11.661,14.251-26.431,21.248-44.312,21.248-19.694,0-36.278-6.997-49.753-21.248-13.215-14.252-19.954-31.614-19.954-52.345,0-20.99,6.739-38.61,19.954-52.863,13.216-13.993,30.059-20.99,50.013-20.99,18.139,0,33.169,7.256,44.829,21.767v-18.398h32.91v190.81h-33.687z"/>

     </g>

    </g>

   </g>

  </g>

  <g id="flowRoot3019-5-6" style="letter-spacing:0px;word-spacing:0px;" font-weight="normal" transform="translate(-546.78668,-310.02302)" font-size="40px" font-style="normal" font-family="Sans" line-height="125%" fill="#000">

   <path id="path3409" style="text-align:start;" d="m894.87,535.39c-2.5571,1.5517-5.2804,2.8183-8.1699,3.8-2.8896,0.98167-5.9929,1.4883-9.3099,1.52-5.2804-0.0158-9.112-1.5991-11.495-4.7499-2.3829-3.1508-3.5546-7.774-3.515-13.87v-43.509h34.58v-20.9h-34.58v-36.48h-24.51v36.48h-17.48v20.9h17.1v44.459c0.0118,13.149,2.9806,23.14,8.9061,29.972s14.737,10.268,26.433,10.307c5.3159-0.0119,10.596-0.74812,15.841-2.2087,5.2446-1.4606,9.9075-3.5743,13.989-6.3412z"/>

   <path id="path3411" style="text-align:start;" d="m928.9,445.33c4.4728-0.079,8.1619-1.5357,11.067-4.3699,2.9053-2.834,4.4095-6.5706,4.5124-11.21-0.10295-4.5558-1.6071-8.2687-4.5124-11.139-2.9054-2.8696-6.5945-4.35-11.067-4.4412-4.5718,0.0912-8.348,1.5716-11.329,4.4412-2.9806,2.8699-4.5243,6.5828-4.6312,11.139,0.10686,4.6392,1.6506,8.3758,4.6312,11.21s6.7568,4.2909,11.329,4.3699zm12.16,115.52,0-103.17-24.89,0,0,103.17z"/>

   <path id="path3413" style="text-align:start;" d="m1044,416.45,0,54.339c-3.6813-4.5559-8.1937-8.2688-13.537-11.139-5.3438-2.8696-11.661-4.35-18.952-4.4412-14.848,0.34844-26.999,5.5417-36.456,15.58-9.4564,10.038-14.341,22.831-14.654,38.38,0.29686,15.722,5.1656,28.595,14.606,38.617,9.4405,10.022,21.672,15.2,36.693,15.532,7.3901-0.095,13.794-1.615,19.214-4.5599,5.4188-2.945,9.9708-6.7449,13.656-11.4v13.49h24.13v-144.4zm-28.88,124.26c-9.1477-0.22164-16.407-3.2933-21.779-9.2149-5.3714-5.9216-8.1185-13.363-8.2411-22.325,0.12267-8.7873,2.8697-16.15,8.2411-22.087,5.3713-5.9374,12.631-9.0248,21.779-9.2624,9.2385,0.23758,16.553,3.325,21.945,9.2624,5.3911,5.9375,8.146,13.3,8.2649,22.087-0.1189,8.9616-2.8738,16.403-8.2649,22.325-5.3913,5.9216-12.706,8.9932-21.945,9.2149z"/>

   <path id="path3415" style="text-align:start;" d="m1164.2,457.68-24.51,69.729-27.93-69.729-28.69,0,45.029,102.22-2.47,5.6999c-2.7273,5.9335-5.7276,10.216-9.0011,12.849-3.2735,2.6322-6.9864,3.9226-11.139,3.8712-2.2919-0.0238-4.5481-0.35627-6.7687-0.99749-2.2206-0.64126-4.3343-1.4488-6.3411-2.4225l-3.99,20.9c2.4066,1.6189,5.2408,2.846,8.5024,3.6812,3.2616,0.83515,6.7607,1.2547,10.497,1.2587,9.7888,0.004,18.046-3.0915,24.771-9.2861,6.7251-6.1947,12.465-15.513,17.218-27.953l41.8-109.82z"/>

   <path id="path3417" style="text-align:start;" d="m1375.9,454.83c-7.8969,0.0436-15.093,1.6665-21.588,4.8687-6.4956,3.2024-11.649,7.7227-15.461,13.561-2.9807-6.159-7.2319-10.751-12.754-13.775-5.5219-3.024-11.531-4.5757-18.026-4.6549-6.84,0.0595-13.015,1.6507-18.525,4.7737-5.51,3.1232-9.7849,7.4219-12.825,12.896v-14.82h-24.32v103.17h24.7v-56.619c0.1543-8.4232,2.458-14.946,6.9111-19.57,4.453-4.6232,10.129-6.9665,17.028-7.0299,6.6459,0.0555,11.926,2.3196,15.841,6.7924,3.9146,4.4729,5.9175,10.822,6.0087,19.047v57.379h24.7v-56.809c0.1226-8.1659,2.3472-14.586,6.6737-19.261,4.3263-4.6746,10.018-7.0575,17.076-7.1487,6.3806,0.00009,11.526,2.1376,15.437,6.4124,3.9107,4.275,5.9215,10.687,6.0325,19.237v57.569h24.89v-62.129c-0.2574-14.131-4.2553-24.961-11.994-32.49-7.7386-7.5286-17.674-11.328-29.806-11.4z"/>

   <path id="path3419" style="text-align:start;" d="m1520.9,457.68,0,13.11c-3.9663-4.5559-8.7163-8.2688-14.25-11.139-5.5337-2.8696-11.994-4.35-19.38-4.4412-15.014,0.29698-27.213,5.3557-36.598,15.176-9.3851,9.8206-14.222,22.622-14.511,38.403,0.2652,15.655,5.0547,28.567,14.368,38.736,9.3138,10.169,21.561,15.433,36.741,15.794,7.398-0.0871,13.882-1.5279,19.451-4.3224,5.5692-2.7946,10.295-6.4203,14.179-10.877v12.73h23.56v-103.17zm-29.83,83.029c-9.1555-0.23352-16.447-3.3289-21.873-9.2861-5.4269-5.9572-8.2056-13.375-8.3362-22.253,0.1188-8.7873,2.8737-16.15,8.2649-22.087,5.3912-5.9374,12.706-9.0248,21.945-9.2624,9.1634,0.23758,16.486,3.325,21.968,9.2624,5.4821,5.9375,8.2925,13.3,8.4312,22.087-0.1387,8.8785-2.9491,16.296-8.4312,22.253-5.4823,5.9572-12.805,9.0526-21.968,9.2861z"/>

   <path id="path3421" style="text-align:start;" d="m1582.8,445.33c4.4728-0.079,8.1619-1.5357,11.067-4.3699,2.9054-2.834,4.4095-6.5706,4.5125-11.21-0.103-4.5558-1.6071-8.2687-4.5125-11.139-2.9054-2.8696-6.5945-4.35-11.067-4.4412-4.5719,0.0912-8.3481,1.5716-11.329,4.4412-2.9806,2.8699-4.5243,6.5828-4.6311,11.139,0.1068,4.6392,1.6506,8.3758,4.6312,11.21,2.9805,2.8342,6.7567,4.2909,11.329,4.3699zm12.16,115.52,0-103.17-24.89,0,0,103.17z"/>

   <path id="path3423" style="text-align:start;" d="m1644.5,560.85,0-144.4-24.7,0,0,144.4z"/>

  </g>

 </g>

</svg>

